{"title":"Greyson Chance - Paparazzi.mp4","uid":5597545,"size":36092763,"categoryP":"video","categoryS":"music_videos","magnet":"?xt=urn:btih:4b426435e5fc80798db4ae03657e4e7e296f8950&amp;dn=Greyson+Chance+-+Paparazzi.mp4&amp;tr=udp%3A%2F%2Ftracker.openbittorrent.com%3A80&amp;tr=udp%3A%2F%2Fopen.demonii.com%3A1337&amp;tr=udp%3A%2F%2Ftracker.coppersurfer.tk%3A6969&amp;tr=udp%3A%2F%2Fexodus.desync.com%3A6969","seeders":0,"leechers":0,"uploader":"poppedtart","files":1,"time":1275090746,"description":"Blatant rip from tube, just a container swap.\n\n\nPlays fine on Apple TV.\n\nGeneral\nComplete name                    : Greyson Chance - Paparazzi.mp4\nFormat                           : MPEG-4\nFormat profile                   : Base Media\nCodec ID                         : isom\nFile size                        : 34.4 MiB\nDuration                         : 3mn 38s\nOverall bit rate                 : 1 323 Kbps\nWriting application              : Lavf52.47.0\n\nVideo\nID                               : 1\nFormat                           : AVC\nFormat/Info                      : Advanced Video Codec\nFormat profile                   : &lt;a class=&quot;__cf_email__&quot; href=&quot;/cdn-cgi/l/email-protection&quot; data-cfemail=&quot;195478707759552a3728&quot;&gt;[email&amp;#160;protected]&lt;/a&gt;&lt;script cf-hash='f9e31' type=&quot;text/javascript&quot;&gt;\n/* &lt;![CDATA[ */!function(){try{var t=&quot;currentScript&quot;in document?document.currentScript:function(){for(var t=document.getElementsByTagName(&quot;script&quot;),e=t.length;e--;)if(t[e].getAttribute(&quot;cf-hash&quot;))return t[e]}();if(t&amp;&amp;t.previousSibling){var e,r,n,i,c=t.previousSibling,a=c.getAttribute(&quot;data-cfemail&quot;);if(a){for(e=&quot;&quot;,r=parseInt(a.substr(0,2),16),n=2;a.length-n;n+=2)i=parseInt(a.substr(n,2),16)^r,e+=String.fromCharCode(i);e=document.createTextNode(e),c.parentNode.replaceChild(e,c)}}}catch(u){}}();/* ]]&gt; */&lt;/script&gt;\nFormat settings, CABAC           : Yes\nFormat settings, ReFrames        : 3 frames\nCodec ID                         : avc1\nCodec ID/Info                    : Advanced Video Coding\nDuration                         : 3mn 37s\nBit rate mode                    : Variable\nBit rate                         : 1 200 Kbps\nWidth                            : 854 pixels\nHeight                           : 480 pixels\nDisplay aspect ratio             : 16:9\nFrame rate mode                  : Variable\nFrame rate                       : 29.919 fps\nMinimum frame rate               : 29.412 fps\nMaximum frame rate               : 58.824 fps\nOriginal frame rate              : 29.917 fps\nResolution                       : 8 bits\nColorimetry                      : 4:2:0\nScan type                        : Progressive\nBits/(Pixel*Frame)               : 0.098\nStream size                      : 31.1 MiB (90%)\n\nAudio\nID                               : 2\nFormat                           : AAC\nFormat/Info                      : Advanced Audio Codec\nFormat version                   : Version 4\nFormat profile                   : LC\nFormat settings, SBR             : No\nCodec ID                         : 40\nDuration                         : 3mn 38s\nBit rate mode                    : Variable\nBit rate                         : 117 Kbps\nChannel(s)                       : 2 channels\nChannel positions                : L R\nSampling rate                    : 44.1 KHz\nResolution                       : 16 bits\nStream size                      : 3.06 MiB (9%)\n","torrent":{"xt":"urn:btih:4b426435e5fc80798db4ae03657e4e7e296f8950","amp;dn":"Greyson+Chance+-+Paparazzi.mp4","amp;tr":["udp%3A%2F%2Ftracker.openbittorrent.com%3A80","udp%3A%2F%2Fopen.demonii.com%3A1337","udp%3A%2F%2Ftracker.coppersurfer.tk%3A6969","udp%3A%2F%2Fexodus.desync.com%3A6969"],"infoHash":"4b426435e5fc80798db4ae03657e4e7e296f8950","infoHashBuffer":{"type":"Buffer","data":[75,66,100,53,229,252,128,121,141,180,174,3,101,126,78,126,41,111,137,80]},"announce":[],"urlList":[]}}